<svg width="55" height="56" viewBox="0 0 55 56" fill="none" xmlns="http://www.w3.org/2000/svg">
<path d="M42.1869 11H12.8131C11.26 11 10 12.26 10 13.8131V43.1869C10 44.74 11.26 46 12.8131 46H42.1869C43.74 46 45 44.74 45 43.1869V13.8131C45 12.26 43.74 11 42.1869 11ZM42.1869 43.2C22.5956 43.1956 12.8 43.1912 12.8 43.1869C12.8044 23.5956 12.8088 13.8 12.8131 13.8C32.4044 13.8044 42.2 13.8088 42.2 13.8131C42.1956 33.4044 42.1912 43.2 42.1869 43.2ZM15.1888 24.1206H20.3819V40.8244H15.1888V24.1206ZM17.7875 21.8369C19.4456 21.8369 20.7975 20.4894 20.7975 18.8269C20.7975 18.4316 20.7196 18.0402 20.5684 17.675C20.4171 17.3098 20.1954 16.978 19.9159 16.6985C19.6364 16.419 19.3046 16.1973 18.9394 16.046C18.5742 15.8947 18.1828 15.8169 17.7875 15.8169C17.3922 15.8169 17.0008 15.8947 16.6356 16.046C16.2704 16.1973 15.9386 16.419 15.6591 16.6985C15.3796 16.978 15.1579 17.3098 15.0066 17.675C14.8554 18.0402 14.7775 18.4316 14.7775 18.8269C14.7731 20.4894 16.1206 21.8369 17.7875 21.8369ZM28.8256 32.56C28.8256 30.3812 29.2412 28.2725 31.9406 28.2725C34.6006 28.2725 34.64 30.7619 34.64 32.7V40.8244H39.8287V31.6631C39.8287 27.1656 38.8575 23.705 33.6031 23.705C31.0787 23.705 29.3856 25.0919 28.69 26.4044H28.62V24.1206H23.6369V40.8244H28.8256V32.56Z" fill="white"/>
<rect width="55" height="55" rx="10" fill="#999999" fill-opacity="0.2"/>
</svg>
